<svg width="1024" height="1024" viewBox="0 0 1024 1024" fill="none" xmlns="http://www.w3.org/2000/svg">
  <path fill-rule="evenodd" clip-rule="evenodd" d="M501.766 80.4707C291.612 88.5255 124.48 219.905 124.48 380.812C124.48 541.849 291.89 673.292 502.285 681.152V80.4707C502.114 80.4771 501.939 80.4641 501.766 80.4707Z" fill="#EA9A00" stroke="#EA9A00" stroke-width="5.13" stroke-linecap="round" stroke-linejoin="round"/>
  <path fill-rule="evenodd" clip-rule="evenodd" d="M526.196 679.682C733.864 671.953 899.358 540.831 899.795 379.925C900.231 218.888 735.177 87.1852 527.312 79L525.683 679.681C525.853 679.675 526.026 679.689 526.196 679.682Z" fill="#EA9A00" stroke="#EA9A00" stroke-width="5.13" stroke-linecap="round" stroke-linejoin="round"/>
  <path fill-rule="evenodd" clip-rule="evenodd" d="M124.524 945.997C336.366 938.246 505.187 806.76 505.632 645.407C506.078 483.922 337.704 351.852 125.662 343.645L124 945.997C124.173 945.991 124.351 946.004 124.524 945.997Z" fill="#210A2F" stroke="#210A2F" stroke-width="5.13" stroke-linecap="round" stroke-linejoin="round"/>
  <path fill-rule="evenodd" clip-rule="evenodd" d="M899.483 344.498C690.504 352.553 524.306 483.927 524.306 644.827C524.306 805.859 690.779 937.297 900 945.156V344.498C899.829 344.504 899.654 344.491 899.483 344.498Z" fill="#210A2F" stroke="#210A2F" stroke-width="5.13" stroke-linecap="round" stroke-linejoin="round"/>
</svg>
