<svg width="79" height="68" viewBox="0 0 79 68" fill="none" xmlns="http://www.w3.org/2000/svg">
<path d="M39.3 0C17.5955 0 0 15.0825 0 33.6845C0 36.0119 0.2751 38.2848 0.801283 40.479C4.68543 47.1622 7.37312 42.944 19.65 36.8045C32.154 30.5514 19.65 45.5378 15.2833 54.2711C13.9406 56.9566 14.6676 59.2295 16.506 61.0919C22.9381 65.0306 30.7937 67.3711 39.3 67.3711C61.0045 67.3711 78.6 52.2908 78.6 33.6845C78.6 15.0825 61.0045 0 39.3 0V0ZM45.5203 53.376C44.6579 56.3147 40.1493 57.5767 35.4486 56.1946C30.7479 54.8148 27.6366 51.3171 28.4991 48.3761C29.3615 45.4374 33.8701 44.1754 38.5708 45.5596C43.2715 46.9373 46.3827 50.435 45.5203 53.376V53.376Z" fill="#E0A945"/>
<path d="M21.8333 23.7045C25.4508 23.7045 28.3833 20.7719 28.3833 17.1545C28.3833 13.537 25.4508 10.6045 21.8333 10.6045C18.2159 10.6045 15.2833 13.537 15.2833 17.1545C15.2833 20.7719 18.2159 23.7045 21.8333 23.7045Z" fill="#F67396"/>
<path d="M43.6667 19.3378C47.2841 19.3378 50.2167 16.4052 50.2167 12.7878C50.2167 9.17032 47.2841 6.23778 43.6667 6.23778C40.0492 6.23778 37.1167 9.17032 37.1167 12.7878C37.1167 16.4052 40.0492 19.3378 43.6667 19.3378Z" fill="#BDF971"/>
<path d="M63.3167 32.4378C66.9341 32.4378 69.8667 29.5052 69.8667 25.8878C69.8667 22.2703 66.9341 19.3378 63.3167 19.3378C59.6992 19.3378 56.7667 22.2703 56.7667 25.8878C56.7667 29.5052 59.6992 32.4378 63.3167 32.4378Z" fill="#FAF170"/>
<path d="M61.1333 52.0878C64.7508 52.0878 67.6833 49.1553 67.6833 45.5378C67.6833 41.9203 64.7508 38.9878 61.1333 38.9878C57.5159 38.9878 54.5833 41.9203 54.5833 45.5378C54.5833 49.1553 57.5159 52.0878 61.1333 52.0878Z" fill="#72E4F4"/>
</svg>
